<?xml version="1.0" encoding="iso-8859-1"?>
<!-- Uploaded to: SVG Repo, www.svgrepo.com, Generator: SVG Repo Mixer Tools -->
<svg height="800px" width="800px" version="1.1" id="Layer_1" xmlns="http://www.w3.org/2000/svg" xmlns:xlink="http://www.w3.org/1999/xlink" 
	 viewBox="0 0 480 480" xml:space="preserve">
<path style="fill:#D2E8ED;" d="M337.12,192L315.2,442.8c-1.44,16.48-15.28,29.2-31.84,29.2h-87.68c-16.64,0-30.48-12.72-31.92-29.2
	L141.92,192H337.12z"/>
<path style="fill:#E4F1F4;" d="M189.84,442.8L168,192h-26.08l21.84,250.8c1.44,16.48,15.28,29.2,31.92,29.2h26.08
	C205.12,472,191.28,459.28,189.84,442.8z"/>
<path style="fill:#D2E8ED;" d="M339.28,160H140.72c0-64,44.48-99.28,99.28-99.28S339.28,96,339.28,160z"/>
<path style="fill:#E4F1F4;" d="M259.28,80c23.336,0,44.76,6.456,61.712,18.744C303,73.936,273.456,60.72,240,60.72
	c-54.8,0-99.28,35.28-99.28,99.28h20.84C169.632,108.28,210.28,80,259.28,80z"/>
<path style="fill:#1D8AA3;" d="M360,176v16H120v-16c0-8.8,7.2-16,16-16h208C352.8,160,360,167.2,360,176z"/>
<path style="fill:#4AA1B5;" d="M168,160h-32c-8.8,0-16,7.2-16,16v16h32v-16C152,167.2,159.2,160,168,160z"/>
<circle style="fill:#1D8AA3;" cx="240" cy="336" r="72"/>
<circle style="fill:#D2E8ED;" cx="240" cy="336" r="24"/>
<g>
	<path style="fill:#132C47;" d="M346.952,152.296c-3.192-57.208-41.8-95.92-98.952-99.24V24c0-4.416,3.584-8,8-8h72
		c4.424,0,8-3.576,8-8s-3.576-8-8-8h-72c-13.232,0-24,10.768-24,24v29.056c-57.152,3.32-95.76,42.024-98.952,99.24
		C121.216,153.776,112,163.776,112,176v16c0,4.424,3.576,8,8,8h14.592l21.2,243.496C157.608,464.304,174.768,480,195.68,480h87.68
		c20.528,0,38.016-16.032,39.816-36.504L344.448,200H360c4.424,0,8-3.576,8-8v-16C368,163.776,358.784,153.776,346.952,152.296z
		 M232,69.032V88c0,4.424,3.576,8,8,8c4.424,0,8-3.576,8-8V69.032c48.232,3.144,79.896,34.728,83.024,82.968H148.976
		C152.104,103.752,183.768,72.168,232,69.032z M307.232,442.104C306.16,454.384,295.672,464,283.36,464h-87.68
		c-12.56,0-22.856-9.416-23.952-21.896l-6.872-78.928C176.016,393.928,205.44,416,240,416c33.192,0,61.72-20.336,73.816-49.192
		L307.232,442.104z M176,336c0-35.288,28.712-64,64-64s64,28.712,64,64s-28.712,64-64,64S176,371.288,176,336z M318.032,318.568
		C310.048,282.824,278.12,256,240,256c-39.376,0-72.128,28.632-78.72,66.152L150.648,200h177.744L318.032,318.568z M352,184h-14.88
		h-195.2H128v-8c0-4.416,3.584-8,8-8h4.72h198.56H344c4.416,0,8,3.584,8,8V184z"/>
	<path style="fill:#132C47;" d="M209.136,344c2.912,11.192,11.672,19.96,22.864,22.864V376c0,4.424,3.576,8,8,8c4.424,0,8-3.576,8-8
		v-9.136c11.192-2.912,19.96-11.672,22.864-22.864H280c4.424,0,8-3.576,8-8s-3.576-8-8-8h-9.136
		c-2.912-11.192-11.672-19.96-22.864-22.864V296c0-4.424-3.576-8-8-8s-8,3.576-8,8v9.136c-11.192,2.912-19.96,11.672-22.864,22.864
		H200c-4.424,0-8,3.576-8,8s3.576,8,8,8H209.136z M240,320c8.824,0,16,7.176,16,16s-7.176,16-16,16s-16-7.176-16-16
		S231.176,320,240,320z"/>
	<path style="fill:#132C47;" d="M432,312h-64c-4.424,0-8-3.576-8-8s3.576-8,8-8h64c4.424,0,8,3.576,8,8S436.424,312,432,312z"/>
	<path style="fill:#132C47;" d="M472,312h-8c-4.424,0-8-3.576-8-8s3.576-8,8-8h8c4.424,0,8,3.576,8,8S476.424,312,472,312z"/>
	<path style="fill:#132C47;" d="M112,312H48c-4.424,0-8-3.576-8-8s3.576-8,8-8h64c4.424,0,8,3.576,8,8S116.424,312,112,312z"/>
	<path style="fill:#132C47;" d="M16,312H8c-4.424,0-8-3.576-8-8s3.576-8,8-8h8c4.424,0,8,3.576,8,8S20.424,312,16,312z"/>
	<path style="fill:#132C47;" d="M378.504,149.496c-2.048,0-4.096-0.784-5.656-2.344c-3.128-3.128-3.128-8.184,0-11.312
		l45.256-45.256c3.128-3.128,8.184-3.128,11.312,0s3.128,8.184,0,11.312l-45.256,45.256
		C382.6,148.712,380.552,149.496,378.504,149.496z"/>
	<path style="fill:#132C47;" d="M446.392,81.608c-2.048,0-4.096-0.784-5.656-2.344c-3.128-3.128-3.128-8.184,0-11.312l5.656-5.656
		c3.128-3.128,8.184-3.128,11.312,0s3.128,8.184,0,11.312l-5.656,5.656C450.488,80.832,448.44,81.608,446.392,81.608z"/>
	<path style="fill:#132C47;" d="M80.232,447.768c-2.048,0-4.096-0.784-5.656-2.344c-3.128-3.128-3.128-8.184,0-11.312l45.256-45.256
		c3.128-3.128,8.184-3.128,11.312,0s3.128,8.184,0,11.312l-45.256,45.256C84.328,446.984,82.28,447.768,80.232,447.768z"/>
	<path style="fill:#132C47;" d="M51.952,476.048c-2.048,0-4.096-0.784-5.656-2.344c-3.128-3.128-3.128-8.184,0-11.312l5.656-5.656
		c3.128-3.128,8.184-3.128,11.312,0s3.128,8.184,0,11.312l-5.656,5.656C56.048,475.264,54,476.048,51.952,476.048z"/>
	<path style="fill:#132C47;" d="M101.496,149.496c-2.048,0-4.096-0.784-5.656-2.344l-45.256-45.256
		c-3.128-3.128-3.128-8.184,0-11.312s8.184-3.128,11.312,0l45.256,45.256c3.128,3.128,3.128,8.184,0,11.312
		C105.584,148.712,103.536,149.496,101.496,149.496z"/>
	<path style="fill:#132C47;" d="M33.608,81.608c-2.048,0-4.096-0.784-5.656-2.344l-5.656-5.656c-3.128-3.128-3.128-8.184,0-11.312
		s8.184-3.128,11.312,0l5.656,5.656c3.128,3.128,3.128,8.184,0,11.312C37.704,80.832,35.656,81.608,33.608,81.608z"/>
	<path style="fill:#132C47;" d="M399.768,447.768c-2.048,0-4.096-0.784-5.656-2.344l-45.256-45.256
		c-3.128-3.128-3.128-8.184,0-11.312s8.184-3.128,11.312,0l45.256,45.256c3.128,3.128,3.128,8.184,0,11.312
		C403.856,446.984,401.816,447.768,399.768,447.768z"/>
	<path style="fill:#132C47;" d="M428.048,476.048c-2.048,0-4.096-0.784-5.656-2.344l-5.656-5.656c-3.128-3.128-3.128-8.184,0-11.312
		s8.184-3.128,11.312,0l5.656,5.656c3.128,3.128,3.128,8.184,0,11.312C432.144,475.264,430.096,476.048,428.048,476.048z"/>
</g>
</svg>